<svg class="chart_svg" xmlns="http://www.w3.org/2000/svg" xmlns:xlink="http://www.w3.org/1999/xlink" width="110" height="65">\n<path d="M 0 0
L 110 0
L 110 65
L 0 65
L 0 0" style="stroke-width:0;stroke:rgba(255,255,255,1.0);fill:rgba(255,255,255,1.0)"></path><path d="M 5 5
L 105 5
L 105 60
L 5 60
L 5 5" style="stroke-width:0;stroke:rgba(255,255,255,1.0);fill:rgba(255,255,255,1.0)"></path><path d="M 5 55
L 7 58
L 9 56
L 11 42
L 13 41
L 15 43
L 17 43
L 20 44
L 21 46
L 23 46
L 25 50
L 27 55
L 29 60
L 31 53
L 34 52
L 35 50
L 37 49
L 39 42
L 41 36
L 43 38
L 45 35
L 47 36
L 49 32
L 51 26
L 53 21
L 55 15
L 57 18
L 59 22
L 62 24
L 63 28
L 65 31
L 67 33
L 69 28
L 71 31
L 73 32
L 75 27
L 77 17
L 79 23
L 81 21
L 83 25
L 85 17
L 87 15
L 89 11
L 91 12
L 93 18
L 95 13
L 97 9
L 99 6
L 101 5
L 103 5" class="pos_chart_stroke"></path><path d="M 5 60
L 5 55
L 7 58
L 9 56
L 11 42
L 13 41
L 15 43
L 17 43
L 20 44
L 21 46
L 23 46
L 25 50
L 27 55
L 29 60
L 31 53
L 34 52
L 35 50
L 37 49
L 39 42
L 41 36
L 43 38
L 45 35
L 47 36
L 49 32
L 51 26
L 53 21
L 55 15
L 57 18
L 59 22
L 62 24
L 63 28
L 65 31
L 67 33
L 69 28
L 71 31
L 73 32
L 75 27
L 77 17
L 79 23
L 81 21
L 83 25
L 85 17
L 87 15
L 89 11
L 91 12
L 93 18
L 95 13
L 97 9
L 99 6
L 101 5
L 103 5
L 105 60" class="pos_chart_fill"></path></svg>